<svg width="150" height="50" viewBox="0 0 150 50" fill="none" xmlns="http://www.w3.org/2000/svg">
  <path d="M15.144 35V15.8H19.056V35H15.144ZM31.1975 35V31.952H31.0255C30.5895 33.056 29.9015 33.968 28.9615 34.688C28.0375 35.392 26.9175 35.744 25.6015 35.744C24.0295 35.744 22.8295 35.296 22.0015 34.4C21.1735 33.488 20.7595 32.192 20.7595 30.512V15.8H24.6715V29.728C24.6715 30.64 24.8915 31.328 25.3315 31.792C25.7715 32.256 26.3635 32.488 27.1075 32.488C28.1755 32.488 29.0355 32.12 29.6875 31.384C30.3395 30.648 30.6655 29.72 30.6655 28.6V15.8H34.5775V35H31.1975ZM38.7378 35V15.8H42.1178V18.848H42.2898C42.5718 17.84 43.0918 17.024 43.8498 16.4C44.6238 15.76 45.6118 15.44 46.8138 15.44C47.0638 15.44 47.3458 15.456 47.6598 15.488C47.9898 15.52 48.2558 15.56 48.4578 15.608V19.232C48.2398 19.152 47.9098 19.088 47.4698 19.04C47.0458 18.976 46.6458 18.944 46.2698 18.944C45.3938 18.944 44.6218 19.144 43.9538 19.544C43.3018 19.928 42.7898 20.472 42.4178 21.176C42.0618 21.864 41.8838 22.656 41.8838 23.552V35H38.7378ZM59.9059 35.744C58.2219 35.744 56.7619 35.36 55.5259 34.592C54.3059 33.824 53.3659 32.736 52.7059 31.328C52.0459 29.904 51.7159 28.232 51.7159 26.312C51.7159 24.376 52.0539 22.704 52.7299 21.296C53.4219 19.888 54.3859 18.8 55.6219 18.032C56.8579 17.264 58.3179 16.88 60.0019 16.88C61.3019 16.88 62.4499 17.12 63.4459 17.6C64.4579 18.064 65.2719 18.728 65.8879 19.592C66.5199 20.456 66.8899 21.456 66.9979 22.592H63.9479C63.7779 21.744 63.3539 21.024 62.6779 20.432C62.0179 19.824 61.1339 19.52 60.0259 19.52C59.0779 19.52 58.2459 19.768 57.5299 20.264C56.8139 20.744 56.2539 21.448 55.8459 22.376C55.4539 23.304 55.2579 24.44 55.2579 25.784C55.2579 27.16 55.4539 28.32 55.8459 29.264C56.2379 30.208 56.7899 30.928 57.5019 31.424C58.2299 31.92 59.0779 32.168 60.0499 32.168C60.7019 32.168 61.2939 32.048 61.8259 31.808C62.3739 31.552 62.8299 31.2 63.1939 30.752C63.5739 30.304 63.8339 29.768 63.9739 29.144H66.9979C66.8899 30.232 66.5359 31.2 65.9359 32.048C65.3359 32.896 64.5299 33.568 63.5179 34.064C62.5219 35.184 61.2859 35.744 59.9059 35.744ZM70.5184 35V15.8H73.6644V35H70.5184ZM80.0359 35V15.8H83.1819V35H80.0359ZM76.5899 22.304V19.472H86.6279V22.304H76.5899ZM97.1669 35L91.5429 15.8H95.0429L99.1669 30.776H99.3389L103.559 15.8H107.059L101.339 35H97.1669ZM113.087 35V15.8H116.999V35H113.087ZM129.152 35V31.952H128.98C128.544 33.056 127.856 33.968 126.916 34.688C125.992 35.392 124.872 35.744 123.556 35.744C121.984 35.744 120.784 35.296 119.956 34.4C119.128 33.488 118.714 32.192 118.714 30.512V15.8H122.626V29.728C122.626 30.64 122.846 31.328 123.286 31.792C123.726 32.256 124.318 32.488 125.062 32.488C126.13 32.488 126.99 32.12 127.642 31.384C128.294 30.648 128.62 29.72 128.62 28.6V15.8H132.532V35H129.152ZM146.473 35.744C144.789 35.744 143.329 35.36 142.093 34.592C140.873 33.824 139.933 32.736 139.273 31.328C138.613 29.904 138.283 28.232 138.283 26.312C138.283 24.376 138.621 22.704 139.297 21.296C139.989 19.888 140.953 18.8 142.189 18.032C143.425 17.264 144.885 16.88 146.569 16.88C147.869 16.88 149.017 17.12 150.013 17.6C151.025 18.064 151.839 18.728 152.455 19.592C153.087 20.456 153.457 21.456 153.565 22.592H150.515C150.345 21.744 149.921 21.024 149.245 20.432C148.585 19.824 147.701 19.52 146.593 19.52C145.645 19.52 144.813 19.768 144.097 20.264C143.381 20.744 142.821 21.448 142.413 22.376C142.021 23.304 141.825 24.44 141.825 25.784C141.825 27.16 142.021 28.32 142.413 29.264C142.805 30.208 143.357 30.928 144.069 31.424C144.797 31.92 145.645 32.168 146.617 32.168C147.269 32.168 147.861 32.048 148.393 31.808C148.941 31.552 149.397 31.2 149.761 30.752C150.141 30.304 150.401 29.768 150.541 29.144H153.565C153.457 30.232 153.103 31.2 152.503 32.048C151.903 32.896 151.097 33.568 150.085 34.064C149.089 35.184 147.853 35.744 146.473 35.744Z" fill="#f97316"/>
</svg> 